<svg id="Lag_1" data-name="Lag 1" xmlns="http://www.w3.org/2000/svg" viewBox="0 0 994.67 263.52"><defs><style>.cls-1{fill:#db1d42;}</style></defs><path class="cls-1" d="M37.43,292.22V156.5h-23V116.18h23v-7.56c0-48.6,37.8-76,92.16-76,18.72,0,41,4.32,51.84,10.8L171,84.86c-8.64-4.68-22.68-9-40-9-28.8,0-38.88,14.76-38.88,34.2v6.12H199.07v176H144.35V156.5H92.51V292.22Z" transform="translate(-14.39 -32.66)"/><path class="cls-1" d="M243,36.62h54.72v255.6H243Z" transform="translate(-14.39 -32.66)"/><path class="cls-1" d="M488.86,249.38c0,16.92.72,33.12,2.52,42.84H442.06l-3.24-17.64h-1.08c-11.52,14-29.52,21.6-50.4,21.6-35.64,0-56.88-25.92-56.88-54,0-45.72,41-67.68,103.32-67.32v-2.52c0-9.36-5-22.68-32-22.68-18,0-37.08,6.12-48.6,13.32L343.06,127.7c12.24-6.84,36.36-15.48,68.4-15.48,58.68,0,77.4,34.56,77.4,76Zm-53.28-40.32c-28.8-.36-51.12,6.48-51.12,27.72,0,14,9.36,20.88,21.6,20.88,13.68,0,24.84-9,28.44-20.16a39.24,39.24,0,0,0,1.08-9.36Z" transform="translate(-14.39 -32.66)"/><path class="cls-1" d="M532.06,172.34c0-22-.72-40.68-1.44-56.16h46.09l2.51,23.76h1.08c7.56-11.16,23-27.72,53.28-27.72,22.68,0,40.68,11.52,48.25,29.88h.71a74.13,74.13,0,0,1,22.68-21.24c9.73-5.76,20.53-8.64,33.49-8.64,33.83,0,59.4,23.76,59.4,76.32V292.22H744.83V196.46c0-25.56-8.29-40.32-25.92-40.32-12.61,0-21.61,8.64-25.2,19.08a45.49,45.49,0,0,0-2.17,14v103H638.26V193.58c0-22.32-7.92-37.44-25.2-37.44-14,0-22.32,10.8-25.56,19.8-1.79,4.32-2.16,9.36-2.16,13.68v102.6H532.06Z" transform="translate(-14.39 -32.66)"/><path class="cls-1" d="M1007.62,235.7c0,23,.72,41.76,1.44,56.52H961.54L959,267.38h-1.08c-6.84,10.8-23.4,28.8-55.08,28.8-35.64,0-61.92-22.32-61.92-76.68V116.18H896v94.68c0,25.56,8.28,41,27.36,41,15.12,0,23.76-10.44,27.36-19.08,1.44-3.24,1.8-7.56,1.8-11.88V116.18h55.08Z" transform="translate(-14.39 -32.66)"/></svg>